<svg width="512" height="512" viewBox="0 0 512 512" fill="none" xmlns="http://www.w3.org/2000/svg">
<path d="M237.724 324.574C220.094 309.177 202.644 293.952 185.312 278.594C184.333 277.727 183.782 275.697 183.953 274.324C185.144 264.773 186.473 255.236 187.956 245.726C191.52 222.872 195.158 200.028 198.832 177.191C202.692 153.195 206.651 129.216 210.524 105.222C213.949 84.0031 217.447 62.7941 220.622 41.5371C221.496 35.6799 223.51 30.8112 227.919 26.7989C235.358 20.0297 242.633 13.0806 250.567 6.52668C253.217 115.751 252.146 224.642 252.57 334.094C246.449 332.25 242.35 328.222 237.724 324.574Z" fill="#FF4444"/>
<path d="M301.952 73.0974C304.774 91.7483 307.59 110.087 310.37 128.432C313.326 147.941 316.265 167.453 319.179 186.968C322.405 208.576 325.606 230.188 328.792 251.802C329.683 257.846 330.453 263.907 331.337 269.952C331.956 274.183 330.993 277.343 327.389 280.365C310.822 294.256 294.63 308.593 278.137 322.573C273.559 326.453 268.408 329.658 263.519 333.172C263.052 332.891 262.585 332.61 262.118 332.329C263.541 223.639 264.965 114.948 266.389 6.25805C266.841 6.10331 267.294 5.94863 267.746 5.79389C270.056 7.49234 272.531 9.0094 274.644 10.9257C279.606 15.4256 284.397 20.1135 289.252 24.7311C293.742 29.0018 296.412 34.0158 297.155 40.3641C298.422 51.2099 300.305 61.9839 301.952 73.0974Z" fill="#FF4444"/>
<path d="M429.886 441.078C391.922 420.998 354.18 401.056 316.494 381.005C301.893 373.236 287.405 365.253 272.903 357.301C268.849 355.078 268.812 353.908 272.565 351.049C295.564 333.531 318.626 316.093 341.547 298.474C344.404 296.277 346.248 296.207 348.89 298.663C363.006 311.784 377.262 324.756 391.459 337.791C410.766 355.517 430.058 373.26 449.369 390.982C453.604 394.869 456.705 399.337 458.351 404.995C464.098 424.754 470.097 444.439 476 464.153C475.707 464.487 475.414 464.822 475.121 465.156C460.124 457.161 445.126 449.166 429.886 441.078Z" fill="#FF4444"/>
<path d="M42.6725 446.807C46.947 432.763 51.2162 419.013 55.4017 405.236C57.189 399.353 60.3457 394.534 64.9733 390.39C89.8353 368.124 114.56 345.705 139.34 323.348C147.978 315.554 156.584 307.725 165.311 300.033C169.336 296.485 170.355 296.419 174.164 299.38C196.704 316.901 219.195 334.487 241.683 352.077C243.145 353.22 244.438 354.58 246.359 356.343C176.671 392.49 107.426 428.407 37.3594 464.75C39.305 458.235 40.9691 452.662 42.6725 446.807Z" fill="#FF4444"/>
<path d="M84.2399 467.216C138.765 437.611 193.054 408.114 247.976 378.274C248.275 388.042 248.708 396.775 248.769 405.511C248.859 418.214 248.53 430.921 248.709 443.621C248.763 447.457 247.031 449.02 243.828 450.181C221.131 458.407 198.432 466.63 175.797 475.025C150.209 484.516 124.682 494.172 99.1422 503.792C95.0598 505.329 91.1188 505.752 86.8004 504.349C72.8094 499.802 58.7295 495.529 44.6838 491.15C44.5662 490.798 44.4487 490.446 44.3311 490.093C47.4671 488.018 50.4887 485.739 53.7603 483.906C63.7896 478.286 73.9149 472.838 84.2399 467.216Z" fill="#FF4444"/>
<path d="M360.825 483.29C332.742 472.628 304.895 462.106 277.048 451.583C273.233 450.142 269.417 448.701 265.711 447.301C265.711 424.207 265.711 401.395 265.711 377.687C268.622 378.953 270.977 379.762 273.127 380.945C295.019 392.989 316.913 405.031 338.739 417.194C377.895 439.015 417.013 460.905 456.124 482.806C460.517 485.266 464.764 487.985 469.875 491.063C464.142 492.978 459.186 494.753 454.158 496.288C444.522 499.231 434.924 502.365 425.142 504.723C421.743 505.543 417.553 505.1 414.228 503.872C396.418 497.296 378.767 490.289 360.825 483.29Z" fill="#FF4444"/>
</svg>
